{"asset":{"version":"2.0","generator":"VECTARY"},"nodes":[{"translation":[0,0,0],"scale":[0.00984339422740577,0.009279566451156749,0.010246530189718819],"rotation":[-0.7071067811865475,0,0,0.7071067811865476],"name":"RootNode (gltf orientation matrix)","children":[1]},{"translation":[0,-1.8528213500976562,0],"scale":[1,1,1],"rotation":[0,0,0,1],"name":"RootNode (model correction matrix)","children":[2]},{"translation":[0,0,0],"scale":[1,1,1],"rotation":[0,0,0,1],"name":"W02 - MFHA00 - Sketchfab - mesh.obj.cleaner.materialmerger.gles","children":[3,4,5]},{"translation":[0,0,0],"scale":[1,1,1],"rotation":[0,0,0,1],"name":"Buffer Layer","mesh":0},{"translation":[0,0,0],"scale":[1,1,1],"rotation":[0,0,0,1],"name":"Buffer Layer","mesh":1},{"translation":[0,0,0],"scale":[1,1,1],"rotation":[0,0,0,1],"name":"Buffer Layer","mesh":2}],"materials":[{"pbrMetallicRoughness":{"baseColorFactor":[1,1,1,1],"baseColorTexture":{"index":0,"extensions":{"KHR_texture_transform":{"offset":[0,0],"scale":[1,1],"rotation":0}},"texCoord":0},"metallicRoughnessTexture":{"index":2,"extensions":{"KHR_texture_transform":{"offset":[0,0],"scale":[1,1],"rotation":0}},"texCoord":0},"metallicFactor":0,"roughnessFactor":1},"name":"Gustavien","normalTexture":{"index":1,"scale":1,"extensions":{"KHR_texture_transform":{"offset":[0,0],"scale":[1,1],"rotation":0}},"texCoord":0},"emissiveFactor":[0,0,0],"alphaMode":"OPAQUE","doubleSided":true},{"pbrMetallicRoughness":{"baseColorFactor":[1,1,1,1],"baseColorTexture":{"index":3,"extensions":{"KHR_texture_transform":{"offset":[0,0],"scale":[1,1],"rotation":0}},"texCoord":0},"metallicRoughnessTexture":{"index":5,"extensions":{"KHR_texture_transform":{"offset":[0,0],"scale":[1,1],"rotation":0}},"texCoord":0},"metallicFactor":0,"roughnessFactor":1},"name":"Gustavien.rattan","normalTexture":{"index":4,"scale":1,"extensions":{"KHR_texture_transform":{"offset":[0,0],"scale":[1,1],"rotation":0}},"texCoord":0},"emissiveFactor":[0,0,0],"alphaMode":"BLEND","doubleSided":true},{"pbrMetallicRoughness":{"baseColorFactor":[1,1,1,1],"baseColorTexture":{"index":6,"extensions":{"KHR_texture_transform":{"offset":[0,0],"scale":[1,1],"rotation":0}},"texCoord":0},"metallicRoughnessTexture":{"index":8,"extensions":{"KHR_texture_transform":{"offset":[0,0],"scale":[1,1],"rotation":0}},"texCoord":0},"metallicFactor":0,"roughnessFactor":1},"name":"wood","normalTexture":{"index":7,"scale":1,"extensions":{"KHR_texture_transform":{"offset":[0,0],"scale":[1,1],"rotation":0}},"texCoord":0},"emissiveFactor":[0,0,0],"alphaMode":"OPAQUE","doubleSided":true}],"textures":[{"sampler":0,"source":0},{"sampler":0,"source":1},{"sampler":0,"source":2},{"sampler":0,"source":3},{"sampler":0,"source":4},{"sampler":0,"source":5},{"sampler":0,"source":6},{"sampler":0,"source":7},{"sampler":0,"source":8}],"images":[{"uri":"Gustavien_baseColor_2.jpg","mimeType":"image/jpeg"},{"uri":"Gustavien_normal_2.jpg","mimeType":"image/jpeg"},{"uri":"Gustavien_metallicRoughness_2.jpg","mimeType":"image/jpeg"},{"uri":"Gustavienrattan_baseColor_2&Gustavienrattan_baseColor_2_opacity.png","mimeType":"image/png"},{"uri":"Gustavienrattan_normal_2.jpg","mimeType":"image/jpeg"},{"uri":"Gustavienrattan_metallicRoughness_2.jpg","mimeType":"image/jpeg"},{"uri":"wood_baseColor_2.jpg","mimeType":"image/jpeg"},{"uri":"wood_normal_2.jpg","mimeType":"image/jpeg"},{"uri":"wood_metallicRoughness_2.jpg","mimeType":"image/jpeg"}],"samplers":[{"wrapS":10497,"wrapT":10497}],"meshes":[{"primitives":[{"mode":4,"attributes":{"POSITION":1,"NORMAL":2,"TEXCOORD_0":3},"material":0,"indices":0}]},{"primitives":[{"mode":4,"attributes":{"POSITION":5,"NORMAL":6,"TEXCOORD_0":7},"material":1,"indices":4}]},{"primitives":[{"mode":4,"attributes":{"POSITION":9,"NORMAL":10,"TEXCOORD_0":11},"material":2,"indices":8}]}],"accessors":[{"bufferView":0,"byteOffset":0,"componentType":5125,"count":2028,"type":"SCALAR"},{"bufferView":1,"byteOffset":0,"componentType":5126,"count":886,"max":[20.5,24.686363220214844,94.01265716552734],"min":[-20.500001907348633,-20,0],"type":"VEC3"},{"bufferView":2,"byteOffset":0,"componentType":5126,"count":886,"type":"VEC3"},{"bufferView":3,"byteOffset":0,"componentType":5126,"count":886,"type":"VEC2"},{"bufferView":4,"byteOffset":0,"componentType":5125,"count":6,"type":"SCALAR"},{"bufferView":5,"byteOffset":0,"componentType":5126,"count":4,"max":[13.7131986618042,21.334983825683594,90.9499740600586],"min":[-13.713200569152832,17.926403045654297,63.1893310546875],"type":"VEC3"},{"bufferView":6,"byteOffset":0,"componentType":5126,"count":4,"type":"VEC3"},{"bufferView":7,"byteOffset":0,"componentType":5126,"count":4,"type":"VEC2"},{"bufferView":8,"byteOffset":0,"componentType":5125,"count":738,"type":"SCALAR"},{"bufferView":9,"byteOffset":0,"componentType":5126,"count":222,"max":[21.49544906616211,19.5,46.79999923706055],"min":[-21.49544906616211,-20.98072052001953,43.20000076293945],"type":"VEC3"},{"bufferView":10,"byteOffset":0,"componentType":5126,"count":222,"type":"VEC3"},{"bufferView":11,"byteOffset":0,"componentType":5126,"count":222,"type":"VEC2"}],"bufferViews":[{"buffer":0,"byteOffset":0,"byteLength":8112,"target":34963},{"buffer":0,"byteOffset":8112,"byteLength":10632,"target":34962},{"buffer":0,"byteOffset":18744,"byteLength":10632,"target":34962},{"buffer":0,"byteOffset":29376,"byteLength":7088,"target":34962},{"buffer":0,"byteOffset":36464,"byteLength":24,"target":34963},{"buffer":0,"byteOffset":36488,"byteLength":48,"target":34962},{"buffer":0,"byteOffset":36536,"byteLength":48,"target":34962},{"buffer":0,"byteOffset":36584,"byteLength":32,"target":34962},{"buffer":0,"byteOffset":36616,"byteLength":2952,"target":34963},{"buffer":0,"byteOffset":39568,"byteLength":2664,"target":34962},{"buffer":0,"byteOffset":42232,"byteLength":2664,"target":34962},{"buffer":0,"byteOffset":44896,"byteLength":1776,"target":34962}],"scene":0,"scenes":[{"nodes":[0],"name":"mfha00 (1).zip"}],"extensionsUsed":["KHR_texture_transform"],"buffers":[{"byteLength":46672,"uri":"mfha00(1).zip.bin"}]}